<svg width="50" height="50" viewBox="0 0 50 50" fill="none" xmlns="http://www.w3.org/2000/svg">
<g clip-path="url(#clip0_136320_4453)">
<path d="M20.2148 25C20.2148 27.6428 22.3572 29.7852 25 29.7852C27.6428 29.7852 29.7852 27.6428 29.7852 25C29.7852 22.3572 27.6428 20.2148 25 20.2148C22.3572 20.2148 20.2148 22.3572 20.2148 25Z" fill="#CACACA"/>
<path d="M13.8096 16.5333C14.0397 15.91 14.4066 15.3458 14.8835 14.8827C15.3466 14.4059 15.9104 14.0389 16.5341 13.8089C17.0399 13.6124 17.7998 13.3786 19.1994 13.3149C20.7135 13.2458 21.1674 13.231 25.0004 13.231C28.8338 13.231 29.2878 13.2455 30.8014 13.3145C32.201 13.3786 32.9613 13.6124 33.4668 13.8089C34.0905 14.0389 34.6547 14.4059 35.1174 14.8827C35.5942 15.3458 35.9612 15.9096 36.1916 16.5333C36.3881 17.0392 36.6219 17.7994 36.6856 19.1991C36.7547 20.7127 36.7695 21.1667 36.7695 25.0001C36.7695 28.8331 36.7547 29.287 36.6856 30.8011C36.6219 32.2007 36.3881 32.9606 36.1916 33.4664C35.9612 34.0901 35.5946 34.6539 35.1178 35.117C34.6547 35.5939 34.0909 35.9608 33.4671 36.1909C32.9613 36.3877 32.201 36.6215 30.8014 36.6852C29.2878 36.7543 28.8342 36.7688 25.0008 36.7688C21.167 36.7688 20.7131 36.7543 19.1998 36.6852C17.8002 36.6215 17.0399 36.3877 16.5341 36.1909C15.2821 35.7079 14.2926 34.7184 13.8096 33.4664C13.6132 32.9606 13.3793 32.2007 13.3152 30.8011C13.2462 29.287 13.2317 28.8331 13.2317 25.0001C13.2317 21.1667 13.2462 20.7127 13.3152 19.1991C13.379 17.7994 13.6128 17.0392 13.8096 16.5333ZM25.0004 32.3712C29.0719 32.3712 32.3723 29.0711 32.3723 24.9997C32.3723 20.9283 29.0719 17.6282 25.0004 17.6282C20.9294 17.6282 17.6289 20.9283 17.6289 24.9997C17.6289 29.0711 20.9294 32.3712 25.0004 32.3712ZM17.3375 19.0594C18.2888 19.0594 19.0602 18.2881 19.0602 17.3367C19.0602 16.3853 18.2888 15.614 17.3375 15.614C16.3861 15.614 15.6147 16.3853 15.6147 17.3367C15.6151 18.2881 16.3861 19.0594 17.3375 19.0594Z" fill="#CACACA"/>
<path d="M25 0C38.805 0 50 11.195 50 25C50 38.805 38.805 50 25 50C11.195 50 1.19209e-06 38.805 1.19209e-06 25C1.19209e-06 11.195 11.195 0 25 0ZM10.7311 30.9185C10.8006 32.4467 11.0435 33.49 11.3983 34.4032C12.1441 36.3316 13.6684 37.8559 15.5968 38.6017C16.5096 38.9565 17.5533 39.1991 19.0811 39.2689C20.612 39.3387 21.101 39.3555 24.9996 39.3555C28.8986 39.3555 29.3873 39.3387 30.9185 39.2689C32.4463 39.1991 33.49 38.9565 34.4028 38.6017C35.3611 38.2412 36.2286 37.6762 36.9457 36.9457C37.6759 36.2289 38.2408 35.3611 38.6013 34.4032C38.9561 33.4904 39.1991 32.4467 39.2685 30.9189C39.3391 29.3877 39.3555 28.8986 39.3555 25C39.3555 21.1014 39.3391 20.6123 39.2689 19.0815C39.1994 17.5533 38.9568 16.51 38.6021 15.5968C38.2416 14.6389 37.6762 13.7711 36.9457 13.0543C36.2289 12.3238 35.3611 11.7588 34.4032 11.3983C33.49 11.0435 32.4467 10.8009 30.9185 10.7311C29.3877 10.6613 28.8986 10.6445 25 10.6445C21.1014 10.6445 20.6123 10.6613 19.0815 10.7315C17.5533 10.8009 16.51 11.0435 15.5968 11.3979C14.6389 11.7584 13.7711 12.3238 13.0539 13.0543C12.3238 13.7714 11.7584 14.6389 11.3983 15.5968C11.0432 16.51 10.8006 17.5533 10.7307 19.0815C10.6609 20.6123 10.6445 21.1014 10.6445 25C10.6445 28.8986 10.6609 29.3877 10.7311 30.9185Z" fill="#CACACA"/>
</g>
<defs>
<clipPath id="clip0_136320_4453">
<rect width="50" height="50" fill="white" transform="matrix(-1 0 0 1 50 0)"/>
</clipPath>
</defs>
</svg>
